<svg xmlns="http://www.w3.org/2000/svg" viewBox="0 0 288.42 155.69"><defs><style>.cls-1{fill:#ecf0f3;}</style></defs><g id="Layer_2" data-name="Layer 2"><g id="Layer_1-2" data-name="Layer 1"><path class="cls-1" d="M288.42,12.41V78.05a77.53,77.53,0,0,1-155.06-.28A54.29,54.29,0,0,0,74.24,23.7C47,26.07,24.81,51.68,24.81,79v64.57A11.81,11.81,0,0,1,18,154.44c-9.15,4.1-18-2.5-18-11.16V79.44C0,40.61,31.45,4.17,70.11.58a77.58,77.58,0,0,1,85,77.19,54.27,54.27,0,0,0,108.54.15V12.07a11.79,11.79,0,0,1,6.77-10.82C279.53-2.85,288.42,3.74,288.42,12.41Z"/></g></g></svg>